<svg xmlns="http://www.w3.org/2000/svg" width="390" height="851.6500000000001" viewBox="0 0 390 851.6500000000001"><title>探索｜AI 猜测确认</title><rect width="390" height="851.6500000000001" fill="white" stroke="#bbbbbb"/><g fill="#292929" font-family="Microsoft YaHei, Noto Sans SC, sans-serif"><text x="24" y="40" font-size="12" font-weight="400">正在了解你 · 有几条支流浮出来了</text><text x="24" y="78.6" font-size="14" font-weight="400">‹ 返回</text><text x="24" y="130.3" font-size="26" font-weight="700">我好像已经看见你的一些积累</text><text x="24" y="170.6" font-size="26" font-weight="700">了。</text><rect x="24" y="202.9" width="342" height="142.04999999999998" fill="#f4f4f4"/><text x="40" y="235.9" font-size="17" font-weight="700">研究分析</text><text x="40" y="265.25" font-size="14" font-weight="400">根据：科研经历、长期钻研问题</text><rect x="40" y="284.95" width="151" height="44" rx="4" fill="white" stroke="#999"/><text x="115.5" y="312.95" text-anchor="middle" font-size="14">✓ 保留</text><rect x="199" y="284.95" width="151" height="44" rx="4" fill="white" stroke="#999"/><text x="274.5" y="312.95" text-anchor="middle" font-size="14">删除</text><rect x="24" y="362.95" width="342" height="142.05" fill="#f4f4f4"/><text x="40" y="395.95" font-size="17" font-weight="700">独立解决问题</text><text x="40" y="425.3" font-size="14" font-weight="400">根据：独立项目、主动学习</text><rect x="40" y="445" width="151" height="44" rx="4" fill="white" stroke="#999"/><text x="115.5" y="473" text-anchor="middle" font-size="14">✓ 保留</text><rect x="199" y="445" width="151" height="44" rx="4" fill="white" stroke="#999"/><text x="274.5" y="473" text-anchor="middle" font-size="14">删除</text><rect x="24" y="523" width="342" height="142.05000000000007" fill="#f4f4f4"/><text x="40" y="556" font-size="17" font-weight="700">项目执行</text><text x="40" y="585.35" font-size="14" font-weight="400">根据：做过完整项目</text><rect x="40" y="605.0500000000001" width="151" height="44" rx="4" fill="white" stroke="#999"/><text x="115.5" y="633.0500000000001" text-anchor="middle" font-size="14">✓ 保留</text><rect x="199" y="605.0500000000001" width="151" height="44" rx="4" fill="white" stroke="#999"/><text x="274.5" y="633.0500000000001" text-anchor="middle" font-size="14">删除</text><rect x="24" y="683.0500000000001" width="342" height="52" rx="5" fill="#ffffff" stroke="#999999"/><text x="195" y="715.0500000000001" text-anchor="middle" font-size="14" fill="#292929">＋ 补一个</text><rect x="24" y="749.0500000000001" width="342" height="52" rx="5" fill="#292929" stroke="#999999"/><text x="195" y="781.0500000000001" text-anchor="middle" font-size="14" fill="#ffffff">确认这些积累</text><text x="24" y="827.0500000000001" font-size="12" font-weight="400">这些是初步理解，你之后也可以继续修改。</text></g></svg>