<svg xmlns="http://www.w3.org/2000/svg" width="390" height="851.3000000000002" viewBox="0 0 390 851.3000000000002"><title>R05｜关键断点</title><rect width="390" height="851.3000000000002" fill="white" stroke="#bbbbbb"/><g fill="#292929" font-family="Microsoft YaHei, Noto Sans SC, sans-serif"><text x="24" y="40" font-size="12" font-weight="400">结果探索 · 5 / 6 · 演示数据</text><text x="24" y="78.6" font-size="14" font-weight="400">‹ 返回</text><text x="24" y="130.3" font-size="26" font-weight="700">你现在最值得疏通的一段，在</text><text x="24" y="170.6" font-size="26" font-weight="700">这里。</text><rect x="24" y="202.9" width="342" height="107.74999999999997" fill="#f4f4f4"/><text x="40" y="235.9" font-size="17" font-weight="700">能力资本 · 82%</text><text x="40" y="265.25" font-size="14" font-weight="400">已有积累</text><text x="40" y="286.95" font-size="14" font-weight="400">↓</text><rect x="24" y="328.65" width="342" height="107.75" fill="#f4f4f4"/><text x="40" y="361.65" font-size="17" font-weight="700">证明资本 · 43%</text><text x="40" y="391" font-size="14" font-weight="400">当前优先建设</text><text x="40" y="412.7" font-size="14" font-weight="400">↓</text><rect x="24" y="454.4" width="342" height="86.05000000000007" fill="#f4f4f4"/><text x="40" y="487.4" font-size="17" font-weight="700">选择权资本 · 47%</text><text x="40" y="516.75" font-size="14" font-weight="400">更多可选方向</text><text x="24" y="573.45" font-size="15" font-weight="400">能力积累已经形成一定基础，外部证明目前较弱，</text><text x="24" y="596.7" font-size="15" font-weight="400">可能限制职业选择空间。</text><rect x="24" y="622.95" width="342" height="107.75000000000011" fill="#f4f4f4"/><text x="40" y="655.95" font-size="17" font-weight="700">你的建设起点</text><text x="40" y="685.3000000000001" font-size="14" font-weight="400">你已经有可转化的项目和经历，可以从整理可展示</text><text x="40" y="707.0000000000001" font-size="14" font-weight="400">成果开始。</text><rect x="24" y="748.7000000000002" width="342" height="52" rx="5" fill="#292929" stroke="#999999"/><text x="195" y="780.7000000000002" text-anchor="middle" font-size="14" fill="#ffffff">看看下一阶段</text><text x="24" y="826.7000000000002" font-size="12" font-weight="400">人生三河 · 中文低保真体验稿</text></g></svg>